<svg width="142" height="110" viewBox="0 0 142 110" fill="none" xmlns="http://www.w3.org/2000/svg">
<path d="M109.989 109.854H31.9998C14.6196 109.854 0.525879 95.7604 0.525879 78.3802C0.525879 61 14.6196 46.9062 31.9998 46.9062H110.224C127.37 46.9062 141.463 61 141.463 78.3802C141.463 95.7604 127.37 109.854 109.989 109.854ZM31.9998 52.5417C17.6717 52.5417 6.1613 64.0521 6.1613 78.3802C6.1613 92.7083 17.6717 104.219 31.9998 104.219H110.224C124.552 104.219 136.062 92.7083 136.062 78.3802C136.062 64.0521 124.552 52.5417 110.224 52.5417H31.9998Z" fill="#F7F7F7"/>
<path d="M54.3177 83.0781C53.3802 83.0781 52.4375 82.6094 51.9688 81.9062C50.0885 79.0833 47.0365 77.4427 43.7448 77.4427C40.4583 77.4427 37.4063 79.0833 35.526 81.9062C34.5885 83.3125 32.9427 83.5469 31.5313 82.6094C30.125 81.6666 29.8906 80.026 30.8281 78.6146C33.6458 74.3854 38.5781 71.8021 43.7448 71.8021C48.9167 71.8021 53.849 74.3854 56.6667 78.6146C57.6042 80.026 57.1354 81.6666 55.9635 82.6094C55.4896 82.8437 55.0208 83.0781 54.3177 83.0781Z" fill="#F7F7F7"/>
<path d="M109.516 83.0781C108.578 83.0781 107.641 82.6094 107.167 81.9062C105.292 79.0833 102.234 77.4427 98.9479 77.4427C95.6615 77.4427 92.6042 79.0833 90.724 81.9062C89.7865 83.3125 88.1406 83.5469 86.7344 82.6094C85.3229 81.6666 85.0885 80.026 86.026 78.6146C88.849 74.3854 93.7812 71.8021 98.9479 71.8021C104.115 71.8021 109.047 74.3854 111.865 78.6146C112.807 80.026 112.339 81.6666 111.161 82.6094C110.458 82.8437 109.99 83.0781 109.516 83.0781Z" fill="#F7F7F7"/>
<path d="M83.6093 26.5521C83.3489 26.5521 83.1561 26.4323 83.0416 26.1979C82.927 25.9583 82.9478 25.7396 83.1093 25.5312C84.2186 24.1146 85.0624 22.5625 85.6457 20.8646C86.2291 19.1666 86.5155 17.4219 86.5103 15.625C86.5155 12.2239 85.5416 9.13539 83.5832 6.35935C83.4843 6.21352 83.4478 6.05727 83.4791 5.88539C83.5051 5.70831 83.5936 5.57289 83.7395 5.47394C83.8801 5.37498 84.0364 5.33852 84.2082 5.36977C84.3853 5.39581 84.5207 5.48435 84.6197 5.63019C85.6509 7.09373 86.4374 8.67706 86.9739 10.3802C87.5155 12.0885 87.7811 13.8385 87.7811 15.625C87.7864 17.5625 87.4739 19.4479 86.8436 21.276C86.2186 23.1094 85.3072 24.7864 84.1093 26.3073C83.9843 26.4739 83.8176 26.5521 83.6093 26.5521Z" fill="#F7F7F7"/>
<path d="M89.8593 31.4167C89.5937 31.4167 89.4062 31.2969 89.2916 31.0625C89.1718 30.8229 89.1978 30.6042 89.3593 30.3958C91.0103 28.2865 92.2707 25.9687 93.1353 23.4375C94.0051 20.9062 94.4374 18.3021 94.427 15.625C94.4322 13.151 94.0624 10.7396 93.3176 8.3802C92.5728 6.02083 91.4895 3.82812 90.0624 1.80729C89.9635 1.66666 89.927 1.5052 89.9582 1.33333C89.9843 1.16145 90.0728 1.02604 90.2187 0.927077C90.3593 0.822911 90.5207 0.786452 90.6926 0.817702C90.8645 0.848952 90.9999 0.937493 91.0989 1.07812C92.5989 3.20833 93.7447 5.51562 94.526 7.99478C95.3124 10.4792 95.703 13.0208 95.6978 15.625C95.703 18.4427 95.2499 21.1875 94.3385 23.849C93.4218 26.5156 92.0989 28.9583 90.3593 31.1719C90.2343 31.3385 90.0676 31.4167 89.8593 31.4167Z" fill="#F7F7F7"/>
<path d="M78.5727 22.6302C78.3071 22.6302 78.1196 22.5104 77.9998 22.276C77.8852 22.0365 77.9113 21.8125 78.0727 21.6042C79.4529 19.849 80.1352 17.8594 80.13 15.625C80.13 13.5729 79.5415 11.7083 78.3592 10.0313C78.255 9.88542 78.2186 9.72917 78.2446 9.5573C78.2759 9.38021 78.3644 9.2448 78.505 9.14063C78.6509 9.03646 78.8123 9.00521 78.9842 9.03646C79.1561 9.06771 79.2967 9.15626 79.3957 9.30209C80.7342 11.1979 81.4009 13.3073 81.3957 15.625C81.4061 18.151 80.63 20.401 79.0727 22.3854C78.9425 22.5469 78.7759 22.6302 78.5727 22.6302Z" fill="#F7F7F7"/>
<path d="M52.1302 0.78125C52.3906 0.78125 52.5833 0.901042 52.6979 1.13542C52.8125 1.375 52.7917 1.59896 52.6302 1.80729C50.9792 3.91146 49.7188 6.22917 48.849 8.76042C47.9792 11.2917 47.5521 13.8958 47.5573 16.5729C47.5521 19.0469 47.9219 21.4635 48.6667 23.8229C49.4167 26.1771 50.5 28.3698 51.9219 30.3906C52.0261 30.5365 52.0625 30.6927 52.0313 30.8646C52 31.0365 51.9115 31.1719 51.7708 31.276C51.625 31.375 51.4688 31.4115 51.2969 31.3802C51.125 31.349 50.9844 31.2656 50.8854 31.1198C49.3854 28.9896 48.2448 26.6875 47.4583 24.2031C46.6771 21.7188 46.2865 19.1771 46.2917 16.5729C46.2813 13.7552 46.7344 11.0156 47.6511 8.34896C48.5625 5.6875 49.8906 3.24479 51.625 1.02604C51.7552 0.864584 51.9219 0.78125 52.1302 0.78125Z" fill="#F7F7F7"/>
<path d="M63.4165 9.56772C63.677 9.56772 63.8697 9.68751 63.9842 9.92709C64.0988 10.1615 64.078 10.3854 63.9113 10.5938C62.5363 12.349 61.8488 14.3438 61.8592 16.5729C61.854 18.625 62.4426 20.4896 63.6301 22.1667C63.7342 22.3125 63.7707 22.4688 63.7395 22.6458C63.7134 22.8177 63.6249 22.9583 63.479 23.0573C63.3332 23.1615 63.1769 23.1979 62.9999 23.1667C62.828 23.1354 62.6926 23.0469 62.5936 22.9011C61.2551 21.0052 60.5832 18.8958 60.5884 16.5729C60.5832 14.0521 61.354 11.7969 62.9165 9.81251C63.0415 9.65105 63.2082 9.56772 63.4165 9.56772Z" fill="#F7F7F7"/>
<path d="M58.375 5.64581C58.6406 5.64581 58.8281 5.7656 58.9479 5.99998C59.0625 6.23956 59.0365 6.46352 58.875 6.67185C57.7708 8.08331 56.9219 9.6354 56.3385 11.3333C55.7604 13.0312 55.4687 14.776 55.474 16.5729C55.4687 19.9739 56.4479 23.0625 58.4062 25.8437C58.5052 25.9844 58.5417 26.1458 58.5104 26.3177C58.4792 26.4896 58.3958 26.625 58.25 26.7239C58.1042 26.8281 57.9479 26.8646 57.776 26.8333C57.6042 26.8021 57.4687 26.7135 57.3646 26.5729C56.3333 25.1094 55.5521 23.526 55.0104 21.8177C54.474 20.1094 54.2031 18.3646 54.2083 16.5729C54.2031 14.6354 54.5104 12.7552 55.1406 10.9219C55.7708 9.09373 56.6823 7.41665 57.875 5.8906C58.0052 5.72915 58.1719 5.64581 58.375 5.64581Z" fill="#F7F7F7"/>
<mask id="mask0_386_1376" style="mask-type:luminance" maskUnits="userSpaceOnUse" x="68" y="12" width="6" height="38">
<path d="M68.7344 12.8386H73.7344V49.8386H68.7344V12.8386Z" fill="white"/>
</mask>
<g mask="url(#mask0_386_1376)">
<path d="M73.9427 47.3854C73.8802 43.2188 73.8177 39.0521 73.7552 34.8906C73.6927 30.7448 73.6302 26.599 73.5677 22.4583C73.5364 20.1198 73.5 17.7813 73.4635 15.4427C73.4531 14.8333 73.2083 14.2083 72.776 13.7761C72.5573 13.5417 72.3073 13.3802 72.0156 13.2865C71.7344 13.1354 71.4271 13.0677 71.1042 13.0833C70.4948 13.1094 69.8594 13.3073 69.4375 13.7708C69.0156 14.2292 68.7344 14.8073 68.7396 15.4427C68.8073 19.6094 68.8698 23.7761 68.9323 27.9375C68.9896 32.0833 69.0573 36.224 69.1146 40.3698C69.151 42.7083 69.1875 45.0469 69.2239 47.3854C69.2344 47.9948 69.4792 48.6198 69.9167 49.0521C70.1302 49.2813 70.3802 49.4479 70.6771 49.5417C70.9583 49.6875 71.2604 49.7552 71.5833 49.7448C72.1927 49.7188 72.8281 49.5156 73.2552 49.0521C73.6719 48.5938 73.9531 48.0208 73.9427 47.3854Z" fill="#F7F7F7"/>
</g>
<mask id="mask1_386_1376" style="mask-type:luminance" maskUnits="userSpaceOnUse" x="66" y="12" width="10" height="11">
<path d="M70.9999 12.9792C68.302 12.9792 66.1145 15.1667 66.1145 17.8698C66.1145 20.5677 68.302 22.7552 70.9999 22.7552C73.6978 22.7552 75.8853 20.5677 75.8853 17.8698C75.8853 15.1667 73.6978 12.9792 70.9999 12.9792Z" fill="white"/>
</mask>
<g mask="url(#mask1_386_1376)">
<path d="M66.1145 12.9792H75.8853V22.7552H66.1145V12.9792Z" fill="#F7F7F7"/>
</g>
</svg>
