<svg width="219" height="212" viewBox="0 0 219 212" fill="none" xmlns="http://www.w3.org/2000/svg">
<path d="M147.989 109.854H69.9998C52.6196 109.854 38.5259 95.7604 38.5259 78.3802C38.5259 61 52.6196 46.9062 69.9998 46.9062H148.224C165.37 46.9062 179.463 61 179.463 78.3802C179.463 95.7604 165.37 109.854 147.989 109.854ZM69.9998 52.5417C55.6717 52.5417 44.1613 64.0521 44.1613 78.3802C44.1613 92.7083 55.6717 104.219 69.9998 104.219H148.224C162.552 104.219 174.062 92.7083 174.062 78.3802C174.062 64.0521 162.552 52.5417 148.224 52.5417H69.9998Z" fill="#F7F7F7"/>
<path d="M92.3177 83.0781C91.3802 83.0781 90.4375 82.6094 89.9688 81.9062C88.0885 79.0833 85.0365 77.4427 81.7448 77.4427C78.4583 77.4427 75.4063 79.0833 73.526 81.9062C72.5885 83.3125 70.9427 83.5469 69.5313 82.6094C68.125 81.6666 67.8906 80.026 68.8281 78.6146C71.6458 74.3854 76.5781 71.8021 81.7448 71.8021C86.9167 71.8021 91.849 74.3854 94.6667 78.6146C95.6042 80.026 95.1354 81.6666 93.9635 82.6094C93.4896 82.8437 93.0208 83.0781 92.3177 83.0781Z" fill="#F7F7F7"/>
<path d="M147.516 83.0781C146.578 83.0781 145.641 82.6094 145.167 81.9062C143.292 79.0833 140.234 77.4427 136.948 77.4427C133.661 77.4427 130.604 79.0833 128.724 81.9062C127.786 83.3125 126.141 83.5469 124.734 82.6094C123.323 81.6666 123.089 80.026 124.026 78.6146C126.849 74.3854 131.781 71.8021 136.948 71.8021C142.115 71.8021 147.047 74.3854 149.865 78.6146C150.807 80.026 150.339 81.6666 149.161 82.6094C148.458 82.8437 147.99 83.0781 147.516 83.0781Z" fill="#F7F7F7"/>
<path d="M40.4985 178.27C35.9829 178.27 31.8735 177.489 28.1652 175.937C24.4673 174.385 21.4569 172.14 19.1235 169.207L28.6235 157.937C31.8996 162.228 35.4465 164.374 39.2694 164.374C41.7798 164.374 43.6965 163.614 45.0194 162.082C46.3527 160.556 47.0194 158.327 47.0194 155.395V128.895H25.7069V115.437H64.2485V154.332C64.2485 162.322 62.2381 168.306 58.2277 172.291C54.2121 176.28 48.3006 178.27 40.4985 178.27Z" fill="#F7F7F7"/>
<path d="M118.362 129.353V177.041H102.445V171.937C100.679 173.869 98.5596 175.332 96.0908 176.332C93.6325 177.332 91.0283 177.832 88.2783 177.832C82.1117 177.832 77.195 176.015 73.5283 172.374C69.8617 168.739 68.0283 163.28 68.0283 155.999V129.353H84.7575V153.291C84.7575 156.864 85.4294 159.473 86.7783 161.124C88.1221 162.765 90.0908 163.582 92.6742 163.582C95.3096 163.582 97.4658 162.661 99.1325 160.812C100.81 158.968 101.653 156.135 101.653 152.312V129.353H118.362Z" fill="#F7F7F7"/>
<path d="M139.394 177.832C135.405 177.832 131.478 177.379 127.603 176.478C123.728 175.562 120.613 174.369 118.269 172.895L123.29 161.457C125.457 162.822 128.03 163.895 131.019 164.687C134.019 165.478 136.983 165.874 139.915 165.874C142.608 165.874 144.524 165.598 145.665 165.041C146.816 164.473 147.394 163.661 147.394 162.603C147.394 161.551 146.707 160.806 145.332 160.374C143.957 159.931 141.769 159.499 138.769 159.082C134.962 158.624 131.717 158.015 129.04 157.249C126.373 156.489 124.066 155.077 122.123 153.02C120.191 150.968 119.228 148.093 119.228 144.395C119.228 141.343 120.134 138.624 121.957 136.249C123.774 133.874 126.426 131.999 129.915 130.624C133.415 129.249 137.603 128.562 142.478 128.562C145.936 128.562 149.363 128.916 152.769 129.624C156.17 130.322 159.019 131.312 161.311 132.603L156.29 143.957C152.066 141.614 147.488 140.437 142.561 140.437C139.92 140.437 137.983 140.749 136.748 141.374C135.509 141.989 134.894 142.786 134.894 143.77C134.894 144.895 135.566 145.681 136.915 146.124C138.274 146.556 140.509 147.01 143.623 147.478C147.551 148.062 150.801 148.739 153.373 149.499C155.957 150.265 158.196 151.661 160.103 153.687C162.019 155.702 162.978 158.53 162.978 162.166C162.978 165.166 162.066 167.853 160.248 170.228C158.426 172.603 155.738 174.468 152.186 175.812C148.644 177.155 144.379 177.832 139.394 177.832Z" fill="#F7F7F7"/>
<path d="M196.044 175.103C194.638 175.978 192.924 176.655 190.898 177.124C188.883 177.593 186.732 177.832 184.44 177.832C178.216 177.832 173.43 176.312 170.086 173.27C166.752 170.218 165.086 165.666 165.086 159.624V143.603H158.127V131.103H165.086V118.687H181.794V131.103H192.711V143.603H181.794V159.437C181.794 161.145 182.242 162.489 183.148 163.457C184.065 164.416 185.284 164.895 186.815 164.895C188.742 164.895 190.445 164.395 191.919 163.395L196.044 175.103Z" fill="#F7F7F7"/>
<path d="M10.6257 211.414C8.7194 211.414 7.00065 211.008 5.45898 210.185C3.92774 209.351 2.7194 208.205 1.83398 206.747C0.958984 205.278 0.521484 203.617 0.521484 201.768C0.521484 199.924 0.958984 198.268 1.83398 196.81C2.7194 195.341 3.92774 194.195 5.45898 193.372C7.00065 192.539 8.72982 192.122 10.6465 192.122C12.2715 192.122 13.735 192.409 15.0423 192.976C16.3444 193.549 17.4434 194.362 18.334 195.414L15.5632 197.976C14.2975 196.518 12.735 195.789 10.8757 195.789C9.70898 195.789 8.67253 196.049 7.77148 196.56C6.86523 197.06 6.1569 197.768 5.64648 198.685C5.14648 199.591 4.89648 200.617 4.89648 201.768C4.89648 202.924 5.14648 203.955 5.64648 204.872C6.1569 205.778 6.86523 206.487 7.77148 206.997C8.67253 207.497 9.70898 207.747 10.8757 207.747C12.735 207.747 14.2975 207.008 15.5632 205.518L18.334 208.08C17.4434 209.164 16.3392 209.992 15.0215 210.56C13.7142 211.127 12.2507 211.414 10.6257 211.414Z" fill="#F7F7F7"/>
<path d="M43.6021 211.414C41.6698 211.414 39.925 210.997 38.373 210.164C36.8157 209.33 35.5917 208.185 34.7063 206.726C33.8313 205.258 33.3938 203.601 33.3938 201.768C33.3938 199.935 33.8313 198.289 34.7063 196.83C35.5917 195.362 36.8157 194.205 38.373 193.372C39.925 192.539 41.6698 192.122 43.6021 192.122C45.5448 192.122 47.2896 192.539 48.8313 193.372C50.373 194.205 51.5865 195.362 52.4771 196.83C53.3625 198.289 53.8105 199.935 53.8105 201.768C53.8105 203.601 53.3625 205.258 52.4771 206.726C51.5865 208.185 50.373 209.33 48.8313 210.164C47.2896 210.997 45.5448 211.414 43.6021 211.414ZM43.6021 207.747C44.7115 207.747 45.7115 207.497 46.6021 206.997C47.4875 206.487 48.1855 205.778 48.6855 204.872C49.1855 203.955 49.4355 202.924 49.4355 201.768C49.4355 200.617 49.1855 199.591 48.6855 198.685C48.1855 197.768 47.4875 197.06 46.6021 196.56C45.7115 196.049 44.7115 195.789 43.6021 195.789C42.5032 195.789 41.5084 196.049 40.623 196.56C39.7323 197.06 39.0292 197.768 38.5188 198.685C38.0188 199.591 37.7688 200.617 37.7688 201.768C37.7688 202.924 38.0188 203.955 38.5188 204.872C39.0292 205.778 39.7323 206.487 40.623 206.997C41.5084 207.497 42.5032 207.747 43.6021 207.747Z" fill="#F7F7F7"/>
<path d="M87.5166 192.435V211.101H83.9749L74.6624 199.768V211.101H70.3916V192.435H73.9749L83.2458 203.768V192.435H87.5166Z" fill="#F7F7F7"/>
<path d="M122.388 192.435V211.101H118.847L109.534 199.768V211.101H105.263V192.435H108.847L118.117 203.768V192.435H122.388Z" fill="#F7F7F7"/>
<path d="M154.593 207.643V211.101H140.135V192.435H154.239V195.893H144.426V199.955H153.093V203.31H144.426V207.643H154.593Z" fill="#F7F7F7"/>
<path d="M180.292 211.414C178.385 211.414 176.667 211.008 175.125 210.185C173.594 209.351 172.385 208.205 171.5 206.747C170.625 205.278 170.188 203.617 170.188 201.768C170.188 199.924 170.625 198.268 171.5 196.81C172.385 195.341 173.594 194.195 175.125 193.372C176.667 192.539 178.396 192.122 180.312 192.122C181.938 192.122 183.401 192.409 184.708 192.976C186.01 193.549 187.109 194.362 188 195.414L185.229 197.976C183.964 196.518 182.401 195.789 180.542 195.789C179.375 195.789 178.339 196.049 177.438 196.56C176.531 197.06 175.823 197.768 175.312 198.685C174.812 199.591 174.562 200.617 174.562 201.768C174.562 202.924 174.812 203.955 175.312 204.872C175.823 205.778 176.531 206.487 177.438 206.997C178.339 207.497 179.375 207.747 180.542 207.747C182.401 207.747 183.964 207.008 185.229 205.518L188 208.08C187.109 209.164 186.005 209.992 184.688 210.56C183.38 211.127 181.917 211.414 180.292 211.414Z" fill="#F7F7F7"/>
<path d="M208.102 195.955H202.123V192.435H218.393V195.955H212.414V211.101H208.102V195.955Z" fill="#F7F7F7"/>
<path d="M121.609 26.5521C121.349 26.5521 121.156 26.4323 121.042 26.1979C120.927 25.9583 120.948 25.7396 121.109 25.5312C122.219 24.1146 123.062 22.5625 123.646 20.8646C124.229 19.1666 124.516 17.4219 124.51 15.625C124.516 12.2239 123.542 9.13539 121.583 6.35935C121.484 6.21352 121.448 6.05727 121.479 5.88539C121.505 5.70831 121.594 5.57289 121.739 5.47394C121.88 5.37498 122.036 5.33852 122.208 5.36977C122.385 5.39581 122.521 5.48435 122.62 5.63019C123.651 7.09373 124.437 8.67706 124.974 10.3802C125.516 12.0885 125.781 13.8385 125.781 15.625C125.786 17.5625 125.474 19.4479 124.844 21.276C124.219 23.1094 123.307 24.7864 122.109 26.3073C121.984 26.4739 121.818 26.5521 121.609 26.5521Z" fill="#F7F7F7"/>
<path d="M127.859 31.4167C127.594 31.4167 127.406 31.2969 127.292 31.0625C127.172 30.8229 127.198 30.6042 127.359 30.3958C129.01 28.2865 130.271 25.9687 131.135 23.4375C132.005 20.9062 132.437 18.3021 132.427 15.625C132.432 13.151 132.062 10.7396 131.318 8.3802C130.573 6.02083 129.489 3.82812 128.062 1.80729C127.963 1.66666 127.927 1.5052 127.958 1.33333C127.984 1.16145 128.073 1.02604 128.219 0.927077C128.359 0.822911 128.521 0.786452 128.693 0.817702C128.864 0.848952 129 0.937493 129.099 1.07812C130.599 3.20833 131.745 5.51562 132.526 7.99478C133.312 10.4792 133.703 13.0208 133.698 15.625C133.703 18.4427 133.25 21.1875 132.338 23.849C131.422 26.5156 130.099 28.9583 128.359 31.1719C128.234 31.3385 128.068 31.4167 127.859 31.4167Z" fill="#F7F7F7"/>
<path d="M116.573 22.6302C116.307 22.6302 116.12 22.5104 116 22.276C115.885 22.0365 115.911 21.8125 116.073 21.6042C117.453 19.849 118.135 17.8594 118.13 15.625C118.13 13.5729 117.541 11.7083 116.359 10.0313C116.255 9.88542 116.219 9.72917 116.245 9.5573C116.276 9.38021 116.364 9.2448 116.505 9.14063C116.651 9.03646 116.812 9.00521 116.984 9.03646C117.156 9.06771 117.297 9.15626 117.396 9.30209C118.734 11.1979 119.401 13.3073 119.396 15.625C119.406 18.151 118.63 20.401 117.073 22.3854C116.943 22.5469 116.776 22.6302 116.573 22.6302Z" fill="#F7F7F7"/>
<path d="M90.1302 0.78125C90.3906 0.78125 90.5833 0.901042 90.6979 1.13542C90.8125 1.375 90.7917 1.59896 90.6302 1.80729C88.9792 3.91146 87.7188 6.22917 86.849 8.76042C85.9792 11.2917 85.5521 13.8958 85.5573 16.5729C85.5521 19.0469 85.9219 21.4635 86.6667 23.8229C87.4167 26.1771 88.5 28.3698 89.9219 30.3906C90.0261 30.5365 90.0625 30.6927 90.0313 30.8646C90 31.0365 89.9115 31.1719 89.7708 31.276C89.625 31.375 89.4688 31.4115 89.2969 31.3802C89.125 31.349 88.9844 31.2656 88.8854 31.1198C87.3854 28.9896 86.2448 26.6875 85.4583 24.2031C84.6771 21.7188 84.2865 19.1771 84.2917 16.5729C84.2813 13.7552 84.7344 11.0156 85.6511 8.34896C86.5625 5.6875 87.8906 3.24479 89.625 1.02604C89.7552 0.864584 89.9219 0.78125 90.1302 0.78125Z" fill="#F7F7F7"/>
<path d="M101.417 9.56772C101.677 9.56772 101.87 9.68751 101.984 9.92709C102.099 10.1615 102.078 10.3854 101.911 10.5938C100.536 12.349 99.8488 14.3438 99.8592 16.5729C99.854 18.625 100.443 20.4896 101.63 22.1667C101.734 22.3125 101.771 22.4688 101.739 22.6458C101.713 22.8177 101.625 22.9583 101.479 23.0573C101.333 23.1615 101.177 23.1979 101 23.1667C100.828 23.1354 100.693 23.0469 100.594 22.9011C99.2551 21.0052 98.5832 18.8958 98.5884 16.5729C98.5832 14.0521 99.354 11.7969 100.917 9.81251C101.042 9.65105 101.208 9.56772 101.417 9.56772Z" fill="#F7F7F7"/>
<path d="M96.375 5.64581C96.6406 5.64581 96.8281 5.7656 96.9479 5.99998C97.0625 6.23956 97.0365 6.46352 96.875 6.67185C95.7708 8.08331 94.9219 9.6354 94.3385 11.3333C93.7604 13.0312 93.4687 14.776 93.474 16.5729C93.4687 19.9739 94.4479 23.0625 96.4062 25.8437C96.5052 25.9844 96.5417 26.1458 96.5104 26.3177C96.4792 26.4896 96.3958 26.625 96.25 26.7239C96.1042 26.8281 95.9479 26.8646 95.776 26.8333C95.6042 26.8021 95.4687 26.7135 95.3646 26.5729C94.3333 25.1094 93.5521 23.526 93.0104 21.8177C92.474 20.1094 92.2031 18.3646 92.2083 16.5729C92.2031 14.6354 92.5104 12.7552 93.1406 10.9219C93.7708 9.09373 94.6823 7.41665 95.875 5.8906C96.0052 5.72915 96.1719 5.64581 96.375 5.64581Z" fill="#F7F7F7"/>
<mask id="mask0_386_1282" style="mask-type:luminance" maskUnits="userSpaceOnUse" x="106" y="12" width="6" height="38">
<path d="M106.734 12.8386H111.734V49.8386H106.734V12.8386Z" fill="white"/>
</mask>
<g mask="url(#mask0_386_1282)">
<path d="M111.943 47.3854C111.88 43.2188 111.818 39.0521 111.755 34.8906C111.693 30.7448 111.63 26.599 111.568 22.4583C111.536 20.1198 111.5 17.7813 111.464 15.4427C111.453 14.8333 111.208 14.2083 110.776 13.7761C110.557 13.5417 110.307 13.3802 110.016 13.2865C109.734 13.1354 109.427 13.0677 109.104 13.0833C108.495 13.1094 107.859 13.3073 107.437 13.7708C107.016 14.2292 106.734 14.8073 106.74 15.4427C106.807 19.6094 106.87 23.7761 106.932 27.9375C106.99 32.0833 107.057 36.224 107.115 40.3698C107.151 42.7083 107.187 45.0469 107.224 47.3854C107.234 47.9948 107.479 48.6198 107.917 49.0521C108.13 49.2813 108.38 49.4479 108.677 49.5417C108.958 49.6875 109.26 49.7552 109.583 49.7448C110.193 49.7188 110.828 49.5156 111.255 49.0521C111.672 48.5938 111.953 48.0208 111.943 47.3854Z" fill="#F7F7F7"/>
</g>
<mask id="mask1_386_1282" style="mask-type:luminance" maskUnits="userSpaceOnUse" x="104" y="12" width="10" height="11">
<path d="M109 12.9792C106.302 12.9792 104.115 15.1667 104.115 17.8698C104.115 20.5677 106.302 22.7552 109 22.7552C111.698 22.7552 113.885 20.5677 113.885 17.8698C113.885 15.1667 111.698 12.9792 109 12.9792Z" fill="white"/>
</mask>
<g mask="url(#mask1_386_1282)">
<path d="M104.115 12.9792H113.885V22.7552H104.115V12.9792Z" fill="#F7F7F7"/>
</g>
</svg>
